<?xml version="1.0" encoding="UTF-8" standalone="no"?>
<!-- Created with Inkscape (http://www.inkscape.org/) -->

<svg
   width="210mm"
   height="297mm"
   viewBox="0 0 210 297"
   version="1.1"
   id="svg5"
   sodipodi:docname="biocpy.svg"
   inkscape:version="1.2.2 (b0a84865, 2022-12-01)"
   inkscape:export-filename="biocpy.png"
   inkscape:export-xdpi="96"
   inkscape:export-ydpi="96"
   xmlns:inkscape="http://www.inkscape.org/namespaces/inkscape"
   xmlns:sodipodi="http://sodipodi.sourceforge.net/DTD/sodipodi-0.dtd"
   xmlns:xlink="http://www.w3.org/1999/xlink"
   xmlns="http://www.w3.org/2000/svg"
   xmlns:svg="http://www.w3.org/2000/svg">
  <sodipodi:namedview
     id="namedview7"
     pagecolor="#ffffff"
     bordercolor="#000000"
     borderopacity="0.25"
     inkscape:showpageshadow="2"
     inkscape:pageopacity="0.0"
     inkscape:pagecheckerboard="0"
     inkscape:deskcolor="#d1d1d1"
     inkscape:document-units="mm"
     showgrid="false"
     inkscape:zoom="1.6819304"
     inkscape:cx="401.62185"
     inkscape:cy="575.23189"
     inkscape:window-width="3440"
     inkscape:window-height="1293"
     inkscape:window-x="0"
     inkscape:window-y="25"
     inkscape:window-maximized="0"
     inkscape:current-layer="layer1" />
  <defs
     id="defs2">
    <rect
       x="700.38569"
       y="381.70426"
       width="160.52983"
       height="111.77632"
       id="rect4119" />
    <linearGradient
       inkscape:collect="always"
       xlink:href="#linearGradient4689"
       id="linearGradient1478"
       gradientUnits="userSpaceOnUse"
       gradientTransform="matrix(0.14883897,0,0,0.15027592,56.521735,77.994307)"
       x1="26.648937"
       y1="20.603781"
       x2="135.66525"
       y2="114.39767" />
    <linearGradient
       id="linearGradient4689">
      <stop
         style="stop-color:#5a9fd4;stop-opacity:1;"
         offset="0"
         id="stop4691" />
      <stop
         style="stop-color:#306998;stop-opacity:1;"
         offset="1"
         id="stop4693" />
    </linearGradient>
    <linearGradient
       inkscape:collect="always"
       xlink:href="#linearGradient4671"
       id="linearGradient1475"
       gradientUnits="userSpaceOnUse"
       gradientTransform="matrix(0.14883897,0,0,0.15027592,56.521735,77.994307)"
       x1="150.96111"
       y1="192.35176"
       x2="112.03144"
       y2="137.27299" />
    <linearGradient
       id="linearGradient4671">
      <stop
         style="stop-color:#ffd43b;stop-opacity:1;"
         offset="0"
         id="stop4673" />
      <stop
         style="stop-color:#ffe873;stop-opacity:1"
         offset="1"
         id="stop4675" />
    </linearGradient>
    <clipPath
       clipPathUnits="userSpaceOnUse"
       id="clipPath537">
      <rect
         style="fill:#80e5ff;stroke-width:8.01936"
         id="rect539"
         width="83.425865"
         height="31.479361"
         x="42.491573"
         y="121.35683"
         ry="0" />
    </clipPath>
    <linearGradient
       inkscape:collect="always"
       xlink:href="#linearGradient4689"
       id="linearGradient445"
       gradientUnits="userSpaceOnUse"
       gradientTransform="matrix(0.14883897,0,0,0.15027592,51.783689,157.29543)"
       x1="26.648937"
       y1="20.603781"
       x2="135.66525"
       y2="114.39767" />
    <linearGradient
       inkscape:collect="always"
       xlink:href="#linearGradient4671"
       id="linearGradient447"
       gradientUnits="userSpaceOnUse"
       gradientTransform="matrix(0.14883897,0,0,0.15027592,51.783689,157.29543)"
       x1="150.96111"
       y1="192.35176"
       x2="112.03144"
       y2="137.27299" />
  </defs>
  <g
     inkscape:label="Layer 1"
     inkscape:groupmode="layer"
     id="layer1">
    <path
       style="fill:url(#linearGradient1478);fill-opacity:1;stroke-width:0.264583"
       d="m 82.026504,56.284518 c -1.212759,0.0056 -2.370916,0.109066 -3.389974,0.289388 -3.00202,0.530358 -3.658306,1.751678 -3.658306,3.798864 0,7.491221 0.197603,14.522872 0.197603,28.299998 h -7.094141 -2.662369 c -2.061755,0 -3.867087,1.239233 -4.431771,3.59668 -0.651357,2.70218 -0.680248,4.388385 0,7.209895 0.504277,2.100227 1.708558,3.596677 3.770312,3.596677 h 2.439128 v -3.241143 c 0,-2.341536 2.025953,-4.406965 4.431771,-4.406966 h 7.085872 c 1.972456,0 3.547071,-1.624056 3.54707,-3.604948 V 62.854336 l 6.949271,-0.03084 -0.019,-2.561962 c -0.01426,-1.922499 -1.544393,-3.366764 -3.469573,-3.68763 -1.218667,-0.202863 -2.48314,-0.295023 -3.695898,-0.289388 z m 3.903517,2.095889 c 0.732776,0 1.331185,0.608184 1.331185,1.35599 0,0.745155 -0.598409,1.347721 -1.331185,1.347721 -0.735403,0 -1.331185,-0.602566 -1.331185,-1.347721 0,-0.747806 0.595782,-1.35599 1.331185,-1.35599 z"
       id="path1948"
       sodipodi:nodetypes="sccccsccscssssccsccscsssc"
       inkscape:export-filename="biocpy-short.png"
       inkscape:export-xdpi="96"
       inkscape:export-ydpi="96" />
    <ellipse
       style="fill:#4989bb;stroke-width:2.72233;fill-opacity:1"
       id="path635-3-1-8"
       cx="114.50885"
       cy="59.046333"
       rx="0.49219862"
       ry="0.4769389" />
    <ellipse
       style="fill:#4989bb;stroke-width:2.72233;fill-opacity:1"
       id="path635-3-1-8-0"
       cx="117.2741"
       cy="60.957363"
       rx="0.49219862"
       ry="0.4769389" />
    <circle
       style="fill:#4989bb;stroke-width:3.78465;fill-opacity:1"
       id="path635-3-1-8-4"
       cx="118.72002"
       cy="61.97332"
       r="0.67357558" />
    <circle
       style="fill:#4989bb;stroke-width:4.88951;fill-opacity:1"
       id="path635-3-1-8-4-8"
       cx="120.71829"
       cy="63.132561"
       r="0.87021226" />
    <path
       style="fill:url(#linearGradient1475);fill-opacity:1;stroke-width:0.264583"
       d="m 83.1464,63.867477 v 27.955486 c 0,2.442304 -2.070602,4.497917 -4.431771,4.497917 h -7.085872 c -1.940939,0 -3.54707,1.661182 -3.547071,3.604948 v 6.755142 c 0,1.92255 1.671793,3.05338 3.547071,3.60495 2.245606,0.66029 4.399025,0.77963 7.085872,0 1.785978,-0.5171 3.547071,-1.55777 3.54707,-3.60495 v -2.70371 h -7.085872 v -0.90124 h 7.085872 3.547072 c 2.061755,0 2.830049,-1.43812 3.547067,-3.596677 0.658104,-2.456079 0.319821,-4.303598 0,-7.209895 -0.463454,-5.184503 -2.05679,-28.401971 -2.118946,-28.401971 z m -3.985287,41.912253 c 0.735404,0 1.331185,0.60257 1.331185,1.34772 0,0.74781 -0.595782,1.35599 -1.331185,1.35599 -0.732776,0 -1.331185,-0.60818 -1.331185,-1.35599 1e-6,-0.74515 0.598408,-1.34772 1.331185,-1.34772 z M 98.578756,55.718044 c -1.788469,-0.548654 -3.757389,-0.56339 -5.60553,-0.273532 -1.51059,0.236917 -3.645974,1.184455 -4.293279,1.615505 0.363091,0.2525 1.058655,0.99973 1.189579,1.904595 l 0.238349,1.647323 c 0,0 3.80782,-2.524354 7.12067,-2.199731 3.312845,0.324623 6.904175,5.496917 11.016995,5.946944 2.36479,0.157277 4.70974,-1.045731 6.73653,-2.274178 2.61771,-1.586601 7.49758,-5.57327 6.62943,-6.354353 -0.59228,-0.532877 -3.75307,2.334757 -5.75494,3.25751 -2.33891,1.078108 -4.69549,2.8648 -7.26112,2.64035 -2.23737,-0.195733 -3.90393,-2.222138 -5.83611,-3.367049 -1.4033,-0.831522 -2.62115,-2.064994 -4.180574,-2.543384 z"
       id="path1950"
       sodipodi:nodetypes="csssssccsccccsccccsssssaacsczcasaaaa" />
    <circle
       style="fill:#4989bb;stroke-width:5.88387;fill-opacity:1"
       id="path635"
       cx="91.619865"
       cy="63.366306"
       r="1.0471852" />
    <circle
       style="fill:#4989bb;stroke-width:6.54678;fill-opacity:1"
       id="path635-3"
       cx="94.811935"
       cy="64.659821"
       r="1.1651672" />
    <circle
       style="fill:#4989bb;stroke-width:8.09358;fill-opacity:1"
       id="path635-3-1"
       cx="98.340492"
       cy="64.471085"
       r="1.4404585" />
    <circle
       style="fill:#4989bb;stroke-width:6.54678;fill-opacity:1"
       id="path635-3-1-0"
       cx="101.6076"
       cy="63.02422"
       r="1.1651672" />
    <circle
       style="fill:#4989bb;stroke-width:5.22096;fill-opacity:1"
       id="path635-3-1-2"
       cx="103.7036"
       cy="61.08075"
       r="0.92920321" />
    <circle
       style="fill:#4989bb;stroke-width:4.99999;fill-opacity:1"
       id="path635-3-1-3"
       cx="105.58752"
       cy="59.102726"
       r="0.88987589" />
    <circle
       style="fill:#4989bb;stroke-width:3.89514;fill-opacity:1"
       id="path635-3-1-3-0"
       cx="107.2063"
       cy="57.4179"
       r="0.69323921" />
    <circle
       style="fill:#4989bb;stroke-width:3.89514;fill-opacity:1"
       id="path635-3-1-3-0-4"
       cx="109.25132"
       cy="56.78867"
       r="0.69323921" />
    <ellipse
       style="fill:#4989bb;stroke-width:3.8395;fill-opacity:1"
       id="path635-3-1-7"
       cx="111.32827"
       cy="57.135784"
       rx="0.69323921"
       ry="0.67357558" />
    <ellipse
       style="fill:#4989bb;stroke-width:3.39115;fill-opacity:1"
       id="path635-3-1-7-3"
       cx="113.06378"
       cy="58.047138"
       rx="0.61228842"
       ry="0.59492093" />
    <text
       xml:space="preserve"
       style="font-size:30.4666px;font-family:sans-serif;-inkscape-font-specification:sans-serif;fill:#646464;fill-opacity:1;stroke-width:47.9788"
       x="95.470879"
       y="96.345848"
       id="text3806"><tspan
         sodipodi:role="line"
         id="tspan3804"
         style="font-style:normal;font-variant:normal;font-weight:normal;font-stretch:normal;font-family:'Mukta Mahee';-inkscape-font-specification:'Mukta Mahee';fill:#646464;fill-opacity:1;stroke-width:47.9788"
         x="95.470879"
         y="96.345848">BiocPy</tspan></text>
    <text
       xml:space="preserve"
       transform="scale(0.26458333)"
       id="text4117"
       style="font-style:normal;font-variant:normal;font-weight:normal;font-stretch:normal;font-family:Kokonor;-inkscape-font-specification:Kokonor;white-space:pre;shape-inside:url(#rect4119);display:inline;fill:#646464;fill-opacity:1;stroke-width:18.8976" />
    <path
       style="fill:url(#linearGradient445);fill-opacity:1;stroke-width:0.264583"
       d="m 77.288458,135.58564 c -1.212759,0.006 -2.370916,0.10906 -3.389974,0.28939 -3.00202,0.53035 -3.658306,1.75167 -3.658306,3.79886 0,7.49122 0.197603,14.52287 0.197603,28.3 H 63.34364 60.681271 c -2.061755,0 -3.867087,1.23923 -4.431771,3.59668 -0.651357,2.70218 -0.680248,4.38838 0,7.20989 0.504277,2.10023 1.708558,3.59668 3.770312,3.59668 H 62.45894 V 179.136 c 0,-2.34154 2.025953,-4.40697 4.431771,-4.40697 h 7.085872 c 1.972456,0 3.547071,-1.62405 3.54707,-3.60495 v -28.96862 l 6.949271,-0.0308 -0.019,-2.56196 c -0.01426,-1.9225 -1.544393,-3.36677 -3.469573,-3.68764 -1.218667,-0.20286 -2.48314,-0.29502 -3.695898,-0.28938 z m 3.903517,2.09589 c 0.732776,0 1.331185,0.60818 1.331185,1.35599 0,0.74515 -0.598409,1.34772 -1.331185,1.34772 -0.735403,0 -1.331185,-0.60257 -1.331185,-1.34772 0,-0.74781 0.595782,-1.35599 1.331185,-1.35599 z"
       id="path1948-0"
       sodipodi:nodetypes="sccccsccscssssccsccscsssc"
       inkscape:export-filename="biocpy-short.png"
       inkscape:export-xdpi="96"
       inkscape:export-ydpi="96" />
    <ellipse
       style="fill:#4989bb;fill-opacity:1;stroke-width:2.72233"
       id="path635-3-1-8-2"
       cx="109.77081"
       cy="138.34744"
       rx="0.49219862"
       ry="0.4769389" />
    <ellipse
       style="fill:#4989bb;fill-opacity:1;stroke-width:2.72233"
       id="path635-3-1-8-0-4"
       cx="112.53606"
       cy="140.25847"
       rx="0.49219862"
       ry="0.4769389" />
    <circle
       style="fill:#4989bb;fill-opacity:1;stroke-width:3.78465"
       id="path635-3-1-8-4-83"
       cx="113.98198"
       cy="141.27443"
       r="0.67357558" />
    <circle
       style="fill:#4989bb;fill-opacity:1;stroke-width:4.88951"
       id="path635-3-1-8-4-8-9"
       cx="115.98025"
       cy="142.43367"
       r="0.87021226" />
    <path
       style="fill:url(#linearGradient447);fill-opacity:1;stroke-width:0.264583"
       d="m 78.408354,143.1686 v 27.95548 c 0,2.44231 -2.070602,4.49792 -4.431771,4.49792 h -7.085872 c -1.940939,0 -3.54707,1.66118 -3.547071,3.60495 v 6.75514 c 0,1.92255 1.671793,3.05338 3.547071,3.60495 2.245606,0.66029 4.399025,0.77963 7.085872,0 1.785978,-0.5171 3.547071,-1.55777 3.54707,-3.60495 v -2.70371 h -7.085872 v -0.90124 h 7.085872 3.547072 c 2.061755,0 2.830049,-1.43812 3.547067,-3.59668 0.658104,-2.45607 0.319821,-4.30359 0,-7.20989 -0.463454,-5.1845 -2.05679,-28.40197 -2.118946,-28.40197 z m -3.985287,41.91225 c 0.735404,0 1.331185,0.60257 1.331185,1.34772 0,0.74781 -0.595782,1.35599 -1.331185,1.35599 -0.732776,0 -1.331185,-0.60818 -1.331185,-1.35599 10e-7,-0.74515 0.598408,-1.34772 1.331185,-1.34772 z M 93.84071,135.01916 c -1.788469,-0.54865 -3.757389,-0.56339 -5.60553,-0.27353 -1.51059,0.23692 -3.645974,1.18446 -4.293279,1.61551 0.363091,0.2525 1.058655,0.99973 1.189579,1.90459 l 0.238349,1.64733 c 0,0 3.80782,-2.52436 7.12067,-2.19974 3.312845,0.32463 6.904175,5.49692 11.017001,5.94695 2.36479,0.15728 4.70974,-1.04573 6.73653,-2.27418 2.61771,-1.5866 7.49758,-5.57327 6.62943,-6.35435 -0.59228,-0.53288 -3.75307,2.33475 -5.75494,3.25751 -2.33891,1.07811 -4.69549,2.8648 -7.26112,2.64035 -2.23738,-0.19574 -3.903936,-2.22214 -5.836116,-3.36705 -1.4033,-0.83152 -2.62115,-2.065 -4.180574,-2.54339 z"
       id="path1950-0"
       sodipodi:nodetypes="csssssccsccccsccccsssssaacsczcasaaaa" />
    <circle
       style="fill:#4989bb;fill-opacity:1;stroke-width:5.88387"
       id="path635-5"
       cx="86.881821"
       cy="142.66742"
       r="1.0471852" />
    <circle
       style="fill:#4989bb;fill-opacity:1;stroke-width:6.54678"
       id="path635-3-2"
       cx="90.073891"
       cy="143.96094"
       r="1.1651672" />
    <circle
       style="fill:#4989bb;fill-opacity:1;stroke-width:8.09358"
       id="path635-3-1-27"
       cx="93.602448"
       cy="143.7722"
       r="1.4404585" />
    <circle
       style="fill:#4989bb;fill-opacity:1;stroke-width:6.54678"
       id="path635-3-1-0-3"
       cx="96.869553"
       cy="142.32533"
       r="1.1651672" />
    <circle
       style="fill:#4989bb;fill-opacity:1;stroke-width:5.22096"
       id="path635-3-1-2-7"
       cx="98.965553"
       cy="140.38187"
       r="0.92920321" />
    <circle
       style="fill:#4989bb;fill-opacity:1;stroke-width:4.99999"
       id="path635-3-1-3-9"
       cx="100.84947"
       cy="138.40384"
       r="0.88987589" />
    <circle
       style="fill:#4989bb;fill-opacity:1;stroke-width:3.89514"
       id="path635-3-1-3-0-0"
       cx="102.46825"
       cy="136.71901"
       r="0.69323921" />
    <circle
       style="fill:#4989bb;fill-opacity:1;stroke-width:3.89514"
       id="path635-3-1-3-0-4-2"
       cx="104.51328"
       cy="136.08978"
       r="0.69323921" />
    <ellipse
       style="fill:#4989bb;fill-opacity:1;stroke-width:3.8395"
       id="path635-3-1-7-39"
       cx="106.59023"
       cy="136.43689"
       rx="0.69323921"
       ry="0.67357558" />
    <ellipse
       style="fill:#4989bb;fill-opacity:1;stroke-width:3.39115"
       id="path635-3-1-7-3-9"
       cx="108.32574"
       cy="137.34825"
       rx="0.61228842"
       ry="0.59492093" />
  </g>
</svg>
